<?xml version="1.0" standalone="no"?>
<!DOCTYPE svg PUBLIC "-//W3C//DTD SVG 20010904//EN"
 "http://www.w3.org/TR/2001/REC-SVG-20010904/DTD/svg10.dtd">
<svg version="1.0" xmlns="http://www.w3.org/2000/svg"
 width="500.000000pt" height="500.000000pt" viewBox="0 0 500.000000 500.000000"
 preserveAspectRatio="xMidYMid meet">
<metadata>
Created by potrace 1.11, written by Peter Selinger 2001-2013
</metadata>
<g transform="translate(0.000000,500.000000) scale(0.100000,-0.100000)"
fill="#000000" stroke="none">
<path d="M2434 4958 c-32 -23 -61 -44 -64 -47 -7 -8 -60 -48 -295 -226 -115
-86 -220 -166 -232 -176 -134 -111 -173 -137 -220 -144 -26 -5 -54 -9 -60 -11
-7 -1 -13 4 -13 11 0 18 -19 23 -50 15 -24 -6 -54 -6 -92 2 -10 2 -41 24 -68
49 -62 54 -92 68 -148 69 -141 1 -210 -129 -141 -266 35 -71 36 -111 6 -173
-13 -25 -22 -51 -20 -58 3 -7 -16 -50 -41 -96 -44 -80 -52 -89 -154 -163 -353
-258 -772 -578 -786 -600 -23 -34 -23 -97 0 -127 20 -27 218 -269 246 -302 9
-11 78 -96 153 -190 76 -93 216 -268 314 -388 97 -120 190 -235 206 -256 17
-21 85 -106 151 -188 238 -294 557 -689 588 -727 17 -22 52 -65 77 -95 91
-112 397 -491 547 -678 l154 -193 247 0 c243 0 247 0 271 23 14 13 120 103
235 201 116 98 224 190 240 205 17 14 55 46 85 71 30 25 68 57 85 71 96 84
226 196 330 284 65 55 123 105 129 110 6 6 49 43 96 82 47 40 90 79 97 85 7 7
18 18 25 23 15 12 190 158 228 192 74 63 361 303 398 332 l42 33 0 302 0 302
-27 31 c-97 108 -171 190 -248 278 -49 55 -105 118 -126 140 -38 41 -278 311
-314 354 -21 25 -153 174 -261 296 -34 39 -80 90 -102 115 -83 95 -386 437
-416 470 -74 82 -336 380 -501 570 -99 113 -224 256 -278 318 l-99 112 -67 0
c-63 0 -72 -3 -127 -42z m-1188 -547 c33 -20 61 -76 43 -86 -5 -4 -28 -8 -50
-10 -48 -5 -108 -43 -87 -56 7 -5 8 -9 2 -9 -23 0 -47 40 -48 81 -1 34 5 46
32 70 38 34 65 36 108 10z m2284 -949 c0 -4 15 -23 33 -42 17 -19 64 -71 102
-115 39 -44 72 -82 75 -85 3 -3 35 -39 70 -80 36 -41 67 -77 70 -80 3 -3 36
-41 75 -85 38 -44 82 -93 96 -110 15 -16 62 -70 105 -120 42 -49 85 -97 93
-106 9 -9 28 -30 42 -46 15 -17 50 -57 79 -89 29 -33 65 -73 79 -89 14 -17 58
-66 96 -110 39 -44 86 -98 105 -119 19 -22 58 -65 86 -96 99 -108 214 -242
214 -250 0 -4 -10 -14 -22 -23 -13 -8 -32 -23 -43 -34 -20 -19 -253 -219 -354
-303 -29 -25 -59 -49 -65 -55 -117 -104 -146 -125 -151 -112 -4 8 -5 18 -4 23
4 18 -16 50 -58 90 -24 23 -43 46 -43 50 0 5 14 15 31 23 44 19 55 51 39 103
-20 60 -75 114 -134 129 -55 14 -69 33 -56 80 19 64 14 77 -32 91 -33 10 -42
10 -46 0 -2 -7 -8 -10 -12 -7 -5 3 -12 0 -16 -6 -5 -8 -3 -9 6 -4 10 6 12 4 7
-9 -4 -10 -7 -21 -7 -25 0 -4 -7 -8 -15 -8 -8 0 -15 4 -15 9 0 4 6 8 13 8 9 0
9 2 0 8 -7 4 -11 27 -10 54 2 35 8 52 28 72 15 15 32 48 39 73 6 26 26 68 44
93 18 25 38 64 45 88 9 33 19 45 46 56 42 18 68 56 62 93 -14 82 -40 172 -64
215 -32 58 -70 80 -128 73 -87 -12 -112 -12 -127 -1 -23 17 -40 80 -42 159 -2
40 -6 83 -11 97 -11 35 -95 155 -149 215 -25 27 -60 76 -78 110 -17 33 -50 87
-73 120 -23 33 -47 70 -54 83 -12 22 -11 23 8 12 12 -6 21 -14 21 -18z m771
-2185 c-10 -9 -11 -8 -5 6 3 10 9 15 12 12 3 -3 0 -11 -7 -18z m-107 -81 c-3
-6 -26 -28 -52 -49 -26 -20 -61 -49 -78 -65 -18 -15 -55 -47 -84 -71 -29 -25
-58 -51 -66 -58 -22 -22 -25 -15 -9 23 8 20 15 45 15 54 0 23 43 75 78 94 137
73 207 99 196 72z m-680 -578 c-4 -7 -21 -24 -38 -38 -16 -14 -66 -56 -109
-93 -44 -37 -81 -66 -83 -65 -1 2 5 26 15 54 33 98 61 123 151 131 25 2 49 8
55 14 13 13 18 11 9 -3z m-827 -219 c15 -6 61 -28 102 -48 l74 -36 128 2 c70
2 139 7 153 13 48 18 26 -8 -90 -106 -64 -55 -123 -105 -131 -112 -7 -8 -20
-12 -27 -9 -7 3 -62 65 -121 139 -60 73 -115 141 -123 151 -18 20 -6 22 35 6z"/>
<path d="M3933 4982 c1 -10 14 -33 29 -52 20 -27 68 -130 68 -147 0 -2 -9 -3
-21 -3 -42 0 -288 -84 -292 -100 -3 -18 26 -128 42 -159 7 -12 20 -21 30 -21
10 0 26 -11 35 -25 19 -29 50 -32 104 -9 35 15 251 94 256 94 9 0 49 -45 101
-114 117 -155 139 -183 239 -299 10 -12 30 -38 45 -57 14 -19 32 -41 38 -48 7
-7 34 -41 60 -75 26 -34 50 -64 53 -67 3 -3 35 -41 70 -84 36 -43 83 -100 105
-125 22 -26 55 -64 73 -86 l32 -38 0 135 0 135 -67 90 c-72 95 -75 99 -208
268 -47 61 -112 144 -143 185 -31 41 -89 107 -129 146 -101 97 -99 114 12 130
28 5 53 9 58 10 4 1 43 2 87 3 81 1 81 1 101 35 11 20 31 37 47 41 52 13 54
20 37 115 -3 19 -14 51 -23 70 -22 46 -55 49 -158 16 -44 -14 -146 -42 -229
-62 -82 -20 -158 -42 -169 -49 -27 -19 -45 -8 -52 32 -5 26 -15 40 -37 52 -17
9 -47 31 -67 49 -31 26 -46 32 -84 32 -38 0 -45 -3 -43 -18z"/>
</g>
</svg>
